<?xml version="1.0" encoding="UTF-8" standalone="no"?>
<svg
  xmlns="http://www.w3.org/2000/svg"
  xmlns:xlink="http://www.w3.org/1999/xlink"
  xmlns:svg="http://www.w3.org/2000/svg"
  id="svg1"
  viewBox="0 0 60 60"
  y="0"
  x="0">
  <path
    id="path832"
    style="stroke-width:1pt;fill:#737373"
    transform="matrix(6.1416 0 -1.6735 6.1416 0 0)"
    d="m5.452 7.7689l-2.112-5.448c-0.06-0.156-0.108-0.372-0.108-0.492 0-0.192 0.132-0.372 0.324-0.432 0.156-0.06 0.276-0.084 0.708-0.096v-0.37198h-3.588l-0.00003 0.37198c0.06 0.012 0.108 0.024 0.12 0.024 0.69603 0.084 0.90003 0.276 1.296 1.224l2.7 6.552h0.72l2.628-6.372c0.504-1.176 0.684-1.332 1.596-1.428v-0.37198h-3.204v0.37198c0.768 0.036 1.104 0.264 1.104 0.732 0 0.132-0.048 0.324-0.12 0.504l-2.064 5.232z"
  />
  <path
    id="path831"
    style="stroke-width:.49142;fill:#333333"
    transform="matrix(2.9763 0 0 2.9763 -74.222 -34.696)"
    d="m38.886 26.9c0-0.621 0.133-1.193 0.398-1.716 0.266-0.528 0.637-0.942 1.114-1.243 0.48-0.3 1.027-0.451 1.64-0.451 0.324 0 0.658 0.039 1.002 0.118 0.344 0.074 0.633 0.203 0.867 0.386 0.235 0.184 0.352 0.432 0.352 0.744 0 0.25-0.074 0.459-0.223 0.627-0.144 0.168-0.326 0.252-0.545 0.252-0.105 0-0.209-0.017-0.31-0.052-0.098-0.036-0.198-0.073-0.299-0.112-0.098-0.043-0.203-0.078-0.316-0.105-0.11-0.028-0.249-0.041-0.416-0.041-0.305 0-0.563 0.072-0.774 0.217-0.207 0.14-0.363 0.332-0.469 0.574-0.101 0.238-0.152 0.506-0.152 0.802 0 0.29 0.051 0.559 0.152 0.809 0.102 0.246 0.248 0.441 0.44 0.586 0.195 0.145 0.426 0.217 0.691 0.217 0.301 0 0.604-0.057 0.908-0.17 0.305-0.113 0.487-0.17 0.545-0.17 0.141 0 0.27 0.041 0.387 0.123s0.209 0.189 0.275 0.322c0.071 0.129 0.106 0.262 0.106 0.399 0 0.289-0.127 0.533-0.381 0.732-0.25 0.199-0.549 0.344-0.896 0.434-0.348 0.093-0.663 0.14-0.944 0.14-0.465 0-0.89-0.086-1.277-0.257-0.383-0.172-0.717-0.416-1.002-0.733-0.285-0.32-0.502-0.687-0.651-1.101-0.148-0.418-0.222-0.862-0.222-1.331zm-6.422 2.315v-4.629c0-0.277 0.086-0.508 0.258-0.691 0.176-0.188 0.4-0.282 0.674-0.282 0.226 0 0.421 0.061 0.586 0.182 0.168 0.117 0.285 0.256 0.351 0.416 0.305-0.48 0.842-0.721 1.611-0.721 0.442 0 0.838 0.08 1.19 0.241 0.355 0.16 0.633 0.406 0.832 0.738 0.203 0.328 0.305 0.742 0.305 1.242v3.504c0 0.281-0.088 0.516-0.264 0.703-0.176 0.188-0.4 0.281-0.674 0.281-0.273 0-0.498-0.095-0.674-0.287-0.176-0.191-0.263-0.424-0.263-0.697v-2.988c0-0.34-0.092-0.614-0.276-0.821-0.179-0.211-0.431-0.316-0.756-0.316-0.32 0-0.572 0.105-0.756 0.316-0.183 0.211-0.275 0.485-0.275 0.821v2.988c0 0.277-0.088 0.512-0.264 0.703-0.171 0.188-0.396 0.281-0.673 0.281-0.274 0-0.498-0.093-0.674-0.281-0.172-0.191-0.258-0.426-0.258-0.703z"
  />
</svg>
